<svg xmlns="http://www.w3.org/2000/svg" width="192" height="36" viewBox="0 0 192 36">
    <path fill="#26b6d6" fill-rule="nonzero" d="M185.685 16.335c0-2.7-1.993-4.92-4.768-4.92-2.775 0-4.769 2.22-4.769 4.92 0 2.7 1.994 4.92 4.77 4.92 2.774 0 4.767-2.22 4.767-4.92zm3.724 9.352a.631.631 0 0 1-.057.872l-2.073 1.898a.63.63 0 0 1-.907-.057l-2.7-3.183a.632.632 0 0 0-.626-.207 9.39 9.39 0 0 1-2.129.232c-5.172 0-9.083-3.91-9.083-8.907 0-4.995 3.91-8.906 9.083-8.906 5.172 0 9.083 3.91 9.083 8.906 0 2.44-.942 4.624-2.49 6.216a.63.63 0 0 0-.032.846l1.93 2.29zm-19.821-17.93h-2.977a.631.631 0 0 0-.631.63v5.627a.631.631 0 0 1-.631.631h-5.727a.631.631 0 0 1-.631-.631V8.388a.63.63 0 0 0-.63-.631h-3.003a.63.63 0 0 0-.63.63v15.896c0 .348.282.63.63.63h3.002a.63.63 0 0 0 .63-.63V19.11a.63.63 0 0 1 .632-.631h5.727a.63.63 0 0 1 .63.63v5.173c0 .348.283.63.632.63h2.977c.348 0 .63-.282.63-.63V8.388a.631.631 0 0 0-.63-.631zM147.835 7h-2.85a.63.63 0 0 0-.631.63v16.653c0 .348.282.63.63.63h2.851a.631.631 0 0 0 .631-.63V7.63a.63.63 0 0 0-.63-.631zm-8.64 10.42c-.202-1.438-1.085-2.043-2.473-2.043-1.438 0-2.27.807-2.598 2.043h5.07zm3.81.96c0 .273 0 .531-.015.791a.63.63 0 0 1-.63.596h-8.287c.278 1.262 1.11 2.245 2.775 2.245.79 0 1.292-.152 1.659-.49a.63.63 0 0 1 .427-.166h2.93a.631.631 0 0 1 .557.926c-.979 1.849-3.012 2.96-5.497 2.96-4.012 0-6.687-2.725-6.687-6.46 0-3.708 2.6-6.433 6.384-6.433 3.658 0 6.384 2.321 6.384 6.03zm-12.267-5.418a.63.63 0 0 0-.527-.285h-2.933a.63.63 0 0 0-.583.39l-2.766 6.674-2.765-6.675a.63.63 0 0 0-.582-.389h-2.933a.63.63 0 0 0-.579.881l4.752 10.975c.1.231.328.38.58.38h3.056a.63.63 0 0 0 .58-.38l4.751-10.975a.63.63 0 0 0-.051-.596zm-19.02 3.929c-.782-.859-1.64-1.086-2.523-1.086-1.665 0-2.902 1.287-2.902 2.978 0 1.69 1.236 2.977 2.902 2.977.883 0 1.74-.228 2.523-1.085v-3.784zm4.088-3.583v10.975c0 .348-.283.63-.631.63h-2.826a.631.631 0 0 1-.631-.63v-.025c-.908.605-1.993.984-3.356.984-3.305 0-6.08-2.826-6.08-6.46 0-3.658 2.775-6.433 6.08-6.433 1.363 0 2.448.353 3.356.959a.63.63 0 0 1 .63-.63h2.827a.63.63 0 0 1 .63.63zm-14.792-.804c-1.468.129-2.583.673-3.527 1.485v-.681a.63.63 0 0 0-.63-.63h-2.851a.63.63 0 0 0-.63.63v10.975c0 .348.281.63.63.63h2.85a.63.63 0 0 0 .631-.63v-6.384c.864-.84 1.972-1.353 3.64-1.502a.63.63 0 0 0 .574-.628v-2.636a.63.63 0 0 0-.687-.63zm-6.008-1.568V8.388a.63.63 0 0 0-.63-.631H80.447a.63.63 0 0 0-.63.63v2.55c0 .348.282.63.63.63h4.214a.63.63 0 0 1 .63.63v12.086c0 .348.282.63.631.63H88.9c.348 0 .631-.282.631-.63V12.198a.63.63 0 0 1 .63-.631h4.214a.63.63 0 0 0 .63-.63zm-20.992 6.51l-2.27-.379c-.985-.176-1.287-.555-1.287-.984 0-.454.479-.833 1.539-.833.958 0 1.737.288 2.002.924a.632.632 0 0 0 .583.388h2.406a.633.633 0 0 0 .619-.753c-.519-2.632-2.948-3.46-5.61-3.46-3.255 0-5.45 1.514-5.45 4.087 0 2.145 1.489 3.33 3.582 3.684l2.473.429c.808.126 1.287.429 1.287.857 0 .53-.681.834-1.766.834-1.118 0-1.988-.343-2.313-1.128a.632.632 0 0 0-.579-.39l-2.427-.017a.63.63 0 0 0-.62.768c.599 2.687 3.023 3.769 5.914 3.769 3.204 0 5.727-1.262 5.727-4.088 0-2.17-1.54-3.28-3.81-3.709zM65.5 21.757a.63.63 0 0 0-.817-.524c-.467.148-.93.248-1.45.248-1.186 0-1.917-.58-1.917-1.841v-2.826a.63.63 0 0 1 .63-.63h2.902a.63.63 0 0 0 .631-.632v-2.245a.63.63 0 0 0-.631-.63h-3.532V9.144a.631.631 0 0 0-.631-.631h-2.826a.63.63 0 0 0-.63.63v3.533H55.46a.63.63 0 0 0-.63.63v2.246c0 .349.282.631.63.631h1.136a.63.63 0 0 1 .63.63v2.953c0 3.305 2.019 5.475 5.349 5.475.616 0 1.69-.058 2.791-.423a.63.63 0 0 0 .428-.676l-.296-2.385zM53.16 12.504c-1.469.129-2.584.673-3.527 1.485v-.681a.63.63 0 0 0-.63-.63H46.15a.631.631 0 0 0-.63.63v10.975c0 .348.282.63.63.63h2.851a.63.63 0 0 0 .63-.63l.001-6.384c.864-.84 1.972-1.353 3.639-1.502a.63.63 0 0 0 .574-.628v-2.636a.631.631 0 0 0-.686-.63zm-12.51 6.304c0-1.666-1.135-3.003-2.825-3.003-1.716 0-2.851 1.337-2.851 3.003 0 1.716 1.135 2.977 2.85 2.977 1.691 0 2.826-1.261 2.826-2.977zm3.887-.025c0 3.734-2.852 6.459-6.712 6.459-3.886 0-6.737-2.725-6.737-6.46 0-3.683 2.851-6.433 6.737-6.433 3.86 0 6.712 2.75 6.712 6.434zm-18.116 0c0-1.691-1.212-3.053-2.877-3.053-.883 0-1.766.277-2.523 1.135V20.7c.757.858 1.64 1.11 2.523 1.11 1.665 0 2.877-1.337 2.877-3.027zm4.011 0c0 3.633-2.775 6.383-6.08 6.383-1.338 0-2.423-.353-3.33-.908v5.878c0 .349-.283.631-.632.631h-2.85a.631.631 0 0 1-.632-.63v-16.83a.63.63 0 0 1 .631-.63h3.482v.63c.908-.555 1.993-.908 3.33-.908 3.306 0 6.081 2.725 6.081 6.384zm-14.668.908c0 3.431-2.826 5.55-7.115 5.55-3.624 0-6.914-1.622-7.637-5.328a.631.631 0 0 1 .619-.752h3.074c.271 0 .511.173.598.43.427 1.263 1.652 2.043 3.472 2.043 1.514 0 2.422-.58 2.422-1.54 0-.605-.328-1.236-1.817-1.513l-2.825-.606c-3.38-.731-4.97-2.27-4.97-4.995 0-3.431 2.775-5.551 6.812-5.551 2.617 0 6.446.92 7.234 4.898a.632.632 0 0 1-.619.754h-3.066a.63.63 0 0 1-.603-.444c-.323-1.042-1.12-1.726-2.72-1.726-1.513 0-2.497.58-2.497 1.69 0 .984.706 1.413 2.069 1.69l2.397.505c3.154.656 5.172 1.943 5.172 4.895z"/>
</svg>
